HIERARCHY
ROOT SimulationBone
{
	OFFSET 0.000000 0.000000 0.000000
	CHANNELS 6 Xposition Yposition Zposition Zrotation Yrotation Xrotation 
	JOINT Hips
	{
		OFFSET 0.000000 0.000000 0.000000
		CHANNELS 6 Xposition Yposition Zposition Zrotation Yrotation Xrotation 
		JOINT RightUpLeg
		{
			OFFSET 0.103462 1.857831 10.548502
			CHANNELS 3 Zrotation Yrotation Xrotation
			JOINT RightLeg
			{
				OFFSET 43.500008 -0.000027 -0.000004
				CHANNELS 3 Zrotation Yrotation Xrotation
				JOINT RightFoot
				{
					OFFSET 42.372200 0.000011 -0.000002
					CHANNELS 3 Zrotation Yrotation Xrotation
					JOINT RightToe
					{
						OFFSET 17.299999 -0.000001 -0.000002
						CHANNELS 3 Zrotation Yrotation Xrotation
						End Site
						{
							OFFSET 0.000000 0.000000 0.000000
						}
					}
				}
			}
		}
		JOINT LeftUpLeg
		{
			OFFSET 0.103458 1.857828 -10.548501
			CHANNELS 3 Zrotation Yrotation Xrotation
			JOINT LeftLeg
			{
				OFFSET 43.500038 -0.000031 0.000011
				CHANNELS 3 Zrotation Yrotation Xrotation
				JOINT LeftFoot
				{
					OFFSET 42.372257 -0.000004 0.000010
					CHANNELS 3 Zrotation Yrotation Xrotation
					JOINT LeftToe
					{
						OFFSET 17.299994 -0.000005 0.000004
						CHANNELS 3 Zrotation Yrotation Xrotation
						End Site
						{
							OFFSET 0.000000 0.000000 0.000000
						}
					}
				}
			}
		}
		JOINT Spine
		{
			OFFSET 6.901966 -2.603733 0.000000
			CHANNELS 3 Zrotation Yrotation Xrotation
			JOINT Spine1
			{
				OFFSET 12.588101 0.000002 0.000000
				CHANNELS 3 Zrotation Yrotation Xrotation
				JOINT Spine2
				{
					OFFSET 12.343201 0.000004 -0.000002
					CHANNELS 3 Zrotation Yrotation Xrotation
					JOINT Neck
					{
						OFFSET 25.832895 -0.000004 0.000002
						CHANNELS 3 Zrotation Yrotation Xrotation
						JOINT Head
						{
							OFFSET 11.766604 0.000011 0.000001
							CHANNELS 3 Zrotation Yrotation Xrotation
							End Site
							{
								OFFSET 0.000000 0.000000 0.000000
							}
						}
					}
					JOINT RightShoulder
					{
						OFFSET 19.745903 -1.480368 6.000108
						CHANNELS 3 Zrotation Yrotation Xrotation
						JOINT RightArm
						{
							OFFSET 11.284126 -0.000007 -0.000022
							CHANNELS 3 Zrotation Yrotation Xrotation
							JOINT RightForeArm
							{
								OFFSET 33.000053 0.000001 0.000028
								CHANNELS 3 Zrotation Yrotation Xrotation
								JOINT RightHand
								{
									OFFSET 25.200005 0.000019 0.000013
									CHANNELS 3 Zrotation Yrotation Xrotation
									End Site
									{
										OFFSET 0.000000 0.000000 0.000000
									}
								}
							}
						}
					}
					JOINT LeftShoulder
					{
						OFFSET 19.746094 -1.480373 -6.000072
						CHANNELS 3 Zrotation Yrotation Xrotation
						JOINT LeftArm
						{
							OFFSET 11.284138 -0.000017 -0.000010
							CHANNELS 3 Zrotation Yrotation Xrotation
							JOINT LeftForeArm
							{
								OFFSET 33.000092 0.000013 0.000009
								CHANNELS 3 Zrotation Yrotation Xrotation
								JOINT LeftHand
								{
									OFFSET 25.199776 0.000139 0.000415
									CHANNELS 3 Zrotation Yrotation Xrotation
									End Site
									{
										OFFSET 0.000000 0.000000 0.000000
									}
								}
							}
						}
					}
				}
			}
		}
	}
}
MOTION
Frames: 7
Frame Time: 0.033333
-143.266146 0.000000 -9.573379 0.000000 -15.495574 0.000000 1.789142 87.940109 0.573653 100.443044 -1.999170 171.870628 169.551086 -3.763109 172.997914 -32.753943 -5.270530 -3.824424 78.628919 2.567218 -1.038703 21.454558 0.003108 0.000017 167.474613 7.557493 -168.231630 -71.792924 -0.585113 3.301231 64.182857 0.368669 6.897406 21.454551 -0.003093 -0.000002 9.599932 -2.115624 -0.380371 9.210243 -4.194160 -0.928591 8.891242 -4.199826 -0.903214 11.772796 0.465811 5.778861 -8.548368 -8.515655 8.447055 -163.812812 -71.085672 -18.037177 -25.854933 48.864464 15.192168 -25.359630 -13.586928 1.083246 10.169883 0.182155 19.147102 177.574837 79.988024 -0.900709 -47.461567 -65.373025 17.143360 -61.203672 16.240090 -2.228343 1.585915 1.991643 -45.494138 
-141.430388 0.000000 -8.081026 0.000000 -13.871751 0.000000 1.632876 88.355118 0.781507 100.198146 -1.453495 172.114616 171.075079 -4.606294 174.324500 -31.606953 -5.703680 -3.190709 79.144674 2.058126 -1.326729 21.454550 0.003107 0.000017 163.363426 9.072002 -166.848790 -77.115144 -0.680399 2.032386 66.412456 1.221835 7.050888 21.454555 -0.003094 0.000000 9.605815 -2.172668 -0.612966 9.231500 -4.289423 -1.398340 8.912522 -4.297923 -1.372376 11.447064 -0.075442 6.021931 -8.470602 -8.101187 8.533395 -162.905845 -71.039561 -18.971668 -26.501535 47.968159 15.014808 -27.478684 -13.935792 1.141042 9.119990 0.358666 17.292408 -177.594016 79.751338 4.001635 -44.742554 -67.353042 16.510917 -54.073149 16.865530 -2.011422 1.518143 4.945435 -44.064313 
-139.675195 0.000000 -6.479806 0.000000 -12.106109 0.000000 1.503871 88.746033 1.008648 99.972646 -0.659661 172.711173 172.441608 -5.794405 175.806242 -30.563519 -5.927281 -2.337160 79.563658 1.378544 -1.658517 21.454558 0.003108 0.000017 159.839814 10.493388 -166.475493 -80.079125 0.016752 0.206241 68.964079 1.608212 4.919733 21.454545 -0.003093 0.000001 9.651321 -2.124319 -0.846724 9.329986 -4.173376 -1.863261 9.011161 -4.184684 -1.837999 11.067849 -0.540209 6.208179 -8.294815 -7.814456 8.590949 -162.457538 -71.052914 -19.433090 -27.308872 47.334362 14.740079 -29.662774 -14.403938 1.211141 8.047592 0.229184 13.547328 -176.079517 79.522096 5.537715 -40.746610 -67.665605 12.168135 -45.199217 17.523641 -1.768760 3.065102 7.498692 -38.760651 
-137.996033 0.000000 -4.763237 0.000000 -10.202532 0.000000 1.368554 89.005913 1.205205 99.875507 0.191265 173.226541 173.622972 -7.091705 176.268331 -30.003795 -5.390461 -1.000944 80.087923 0.321603 -2.099153 21.454555 0.003108 0.000017 157.167243 11.567596 -167.281920 -80.644569 0.721294 -0.722873 69.485598 2.406883 5.417015 21.454555 -0.003094 -0.000001 9.767181 -2.016856 -0.975370 9.563711 -3.946112 -2.115404 9.245020 -3.958947 -2.091521 10.785984 -0.462899 6.252543 -8.674930 -8.260357 8.796047 -162.223823 -71.171029 -19.672490 -28.843151 47.003576 14.008715 -31.832056 -15.042768 1.295528 7.272417 -0.315387 9.234762 -175.947995 79.503696 5.671108 -36.983866 -67.051851 6.702439 -34.890775 16.998580 -1.461777 5.683225 7.997154 -30.316594 
-136.392436 0.000000 -2.927774 0.000000 -8.170591 0.000000 1.240305 89.086037 1.326908 99.839228 0.777008 173.426685 174.633662 -8.288698 177.601038 -29.662801 -5.411657 -0.230994 80.749338 -0.348734 -2.683870 21.454558 0.003108 0.000017 155.123718 12.218996 -169.542548 -79.102572 1.300287 0.235297 70.070781 1.896047 6.130328 21.454558 -0.003092 0.000000 9.910660 -1.946342 -0.956457 9.848437 -3.804107 -2.076320 9.529805 -3.816713 -2.053297 10.401998 -0.139059 6.200964 -9.179880 -8.469824 8.867040 -162.383458 -71.536867 -19.504044 -30.747982 47.115663 12.407698 -34.185674 -15.773526 1.393566 6.726854 -0.752630 6.837896 -175.156021 79.606640 6.477092 -32.996360 -66.017214 1.395230 -25.775290 14.500966 -1.122658 10.219616 4.871495 -24.213451 
-134.867652 0.000000 -0.972506 0.000000 -6.015803 0.000000 1.098055 89.102287 1.353519 99.669581 1.228928 173.404440 175.416429 -9.482103 179.242250 -29.265335 -5.644483 0.299414 81.375707 -0.864445 -3.381340 21.454557 0.003109 0.000017 153.656334 12.466795 -172.982450 -75.549139 1.630339 2.151662 71.249658 0.421022 6.132080 21.454551 -0.003091 0.000000 10.042969 -1.874043 -0.880456 10.109057 -3.663882 -1.922344 9.790455 -3.675559 -1.900171 9.825307 0.304876 6.356783 -9.851966 -8.460033 9.115932 -162.766441 -71.667775 -19.108573 -32.489219 47.016126 10.212637 -36.913662 -16.214697 1.486178 6.662759 -0.719121 6.711664 -174.792560 79.519398 6.845611 -27.596049 -65.339379 -1.663977 -20.609783 12.317182 -0.909844 15.030019 -2.447645 -31.207872 
-133.418636 0.000000 1.098276 0.000000 -3.748473 0.000000 0.881459 89.010338 1.306800 99.367778 1.507293 173.453334 175.664679 -10.542496 -178.719905 -29.145397 -5.821798 0.711989 81.975780 -1.330931 -4.255747 21.454558 0.003108 0.000017 153.282354 12.312803 -176.996853 -69.703679 1.438992 5.009429 72.405551 -1.487414 6.833344 21.454550 -0.003098 -0.000000 10.167395 -1.787162 -0.857650 10.355303 -3.490263 -1.872766 10.036760 -3.501645 -1.851644 9.408066 1.094339 7.154491 -11.272153 -8.639079 10.191808 -161.756105 -71.610435 -20.148624 -34.709867 46.926446 8.461868 -39.093715 -16.783084 1.578057 6.414991 -1.025400 7.336224 -173.994329 79.594933 7.657491 -19.459190 -64.897104 -9.012412 -21.521356 12.106284 -0.907731 21.622321 -9.870253 -50.778082 
